<?xml version="1.0" encoding="UTF-8"?>
<svg id="Layer_1" xmlns="http://www.w3.org/2000/svg" version="1.1" viewBox="0 0 309.42 375.87">
  <!-- Generator: Adobe Illustrator 29.4.0, SVG Export Plug-In . SVG Version: 2.1.0 Build 152)  -->
  <defs>
    <style>
      .st0 {
        fill: #fff;
      }
    </style>
  </defs>
  <path class="st0" d="M59.87,291.28c-38.87,86.15,43.9,107.75,104.95,57.33,17.94,56.54,85.28,14.37,109.42-29.43,53.23-96.53,31.73-195.01,26.21-215.32-37.84-138.52-226.95-138.66-259.5.71-7.6,24.39-7.73,52.13-12.04,80.93-2.17,14.52-3.7,23.79-9.32,39.07-3.23,8.78-7.68,16.58-14.66,29.73-13.8,21.1.25,64.24,54.93,36.99h0Z"/>
  <g>
    <path d="M172.55,162.97c-15.52,0-17.84-18.55-17.84-29.61,0-9.98,1.79-17.91,5.18-22.94,2.98-4.42,7.24-6.67,12.67-6.67s10.07,2.28,13.36,6.78c3.74,5.12,5.71,13.02,5.71,22.83,0,18.54-7.13,29.61-19.07,29.61h0Z"/>
    <path d="M236.38,162.97c-15.52,0-17.84-18.55-17.84-29.61,0-9.98,1.79-17.91,5.18-22.94,2.98-4.42,7.24-6.67,12.67-6.67s10.07,2.28,13.36,6.78c3.74,5.12,5.71,13.02,5.71,22.83,0,18.54-7.13,29.61-19.07,29.61h0Z"/>
  </g>
</svg>